# xmcd CD database file
#
# Track frame offsets:
#	150
#	9652
#	15257
#	27447
#	37177
#	48045
#	58922
#	72607
#	81712
#	91937
#	103040
#	115597
#	129280
#	140927
#	155962
#	167835
#	179337
#	188902
#	202180
#	215442
#	226955
#	240762
#	252222
#	262305
#	279210
#	290817
#	299172
#	311555
#
# Disc length: 4287 seconds
#
# Revision: 0
# Processed by: cddbd v1.5.1PL0 Copyright (c) Steve Scherf et al.
# Submitted via: CDex 1.40Release
#
DISCID=b210bd1c
DTITLE=Willie Nelson - Essential Willie Nelson
DYEAR=1900
DGENRE=Country
TTITLE0=One Step Beyond
TTITLE1=The Ghost
TTITLE2=End of Understanding
TTITLE3=Lets Pretend
TTITLE4=Blame It On The Times
TTITLE5=I Feel Sorry For Him
TTITLE6=Everything But You
TTITLE7=Wastin' Time
TTITLE8=Broken Promises
TTITLE9=Go Away
TTITLE10=Shelter Of My Armes
TTITLE11=A Moment Isn't Very Long
TTITLE12=Is There Something On Your Mind
TTITLE13=Face Of A Fighter
TTITLE14=I Hope So
TTITLE15=Some Other Time
TTITLE16=Heartaches
TTITLE17=I Just Don't Understand
TTITLE18=You'll Always Have Someone
TTITLE19=Suffer
TTITLE20=No Tommorrow In Sight
TTITLE21=I'm Gonna Lose A Lot Of Teardrops
TTITLE22=A New Way To Cry
TTITLE23=I Let My Mind Wander
TTITLE24=December Day
TTITLE25=You Wouldn't Cross The Street
TTITLE26=I Can't Find The Time
TTITLE27=I Didn't Sleep A Wink
EXTD=ID3G: 2
EXTT0=
EXTT1=
EXTT2=
EXTT3=
EXTT4=
EXTT5=
EXTT6=
EXTT7=
EXTT8=
EXTT9=
EXTT10=
EXTT11=
EXTT12=
EXTT13=
EXTT14=
EXTT15=
EXTT16=
EXTT17=
EXTT18=
EXTT19=
EXTT20=
EXTT21=
EXTT22=
EXTT23=
EXTT24=
EXTT25=
EXTT26=
EXTT27=
PLAYORDER=
